<svg xmlns="http://www.w3.org/2000/svg" version="1.1" viewBox="-5.0 -10.0 110.0 135.0">
 <g>
  <path d="m50 73.008c-4.8711 0.011719-9.6172-1.5352-13.543-4.4102h-0.003906c-0.65234-0.47656-0.79688-1.3945-0.32031-2.0469 0.48047-0.65234 1.3945-0.79688 2.0469-0.32031 3.4297 2.5078 7.5703 3.8555 11.82 3.8477 6.3906-0.015625 12.398-3.0586 16.188-8.2031 0.48047-0.65625 1.3984-0.79688 2.0547-0.31641 0.65234 0.48047 0.79297 1.3984 0.3125 2.0508-4.3477 5.8945-11.23 9.3828-18.555 9.3984zm-17.598-9.1172c-0.47656 0-0.92188-0.23047-1.1992-0.62109-3.8086-5.4023-5.1133-12.18-3.5781-18.605 1.5352-6.4297 5.7578-11.891 11.598-14.988 5.8398-3.0977 12.727-3.5352 18.91-1.2031v0.003906c0.70313 0.31641 1.0391 1.1289 0.76563 1.8516-0.27344 0.72266-1.0625 1.1094-1.8008 0.88281-5.3984-2.043-11.414-1.6641-16.512 1.0391-5.0977 2.7031-8.7891 7.4688-10.125 13.082-1.3398 5.6133-0.19922 11.531 3.1328 16.246 0.31641 0.44531 0.35938 1.0312 0.10938 1.5195-0.25391 0.48438-0.75391 0.79297-1.3047 0.78906zm38.141-5.9297h0.003906c-0.15234 0-0.30078-0.023438-0.44531-0.070313-0.37109-0.11328-0.67969-0.37109-0.85937-0.71875-0.18359-0.34375-0.21875-0.74609-0.10156-1.1172 1.2031-3.8242 1.2344-7.918 0.09375-11.762s-3.4023-7.2578-6.4961-9.8047c-0.625-0.51562-0.71094-1.4414-0.19531-2.0664s1.4414-0.71094 2.0664-0.19531c3.543 2.918 6.1367 6.8281 7.4453 11.234 1.3047 4.4023 1.2656 9.0938-0.11328 13.477-0.19141 0.60938-0.75781 1.0234-1.3945 1.0234z"/>
  <path d="m50 90.355c-22.25 0-40.355-18.105-40.355-40.355s18.105-40.355 40.355-40.355 40.355 18.105 40.355 40.355-18.105 40.355-40.355 40.355zm0-77.781c-20.637 0-37.426 16.797-37.426 37.426s16.797 37.426 37.426 37.426 37.426-16.797 37.426-37.426-16.789-37.426-37.426-37.426z"/>
  <path d="m50 90.344c-0.80859 0-1.4648-0.65234-1.4648-1.4609v-77.766c0-0.80859 0.65625-1.4609 1.4648-1.4609s1.4648 0.65234 1.4648 1.4609v77.766c0 0.38672-0.15625 0.75781-0.42969 1.0352-0.27344 0.27344-0.64844 0.42578-1.0352 0.42578z"/>
  <path d="m88.883 51.465h-77.766c-0.80859 0-1.4609-0.65625-1.4609-1.4648s0.65234-1.4648 1.4609-1.4648h77.766c0.80859 0 1.4609 0.65625 1.4609 1.4648s-0.65234 1.4648-1.4609 1.4648z"/>
  <path d="m50 82.359c-17.844 0-32.359-14.516-32.359-32.359h0.003906c-0.003906-7.8555 2.8516-15.441 8.0352-21.34 0.53516-0.60938 1.4609-0.66797 2.0664-0.13281 0.60938 0.53125 0.66797 1.457 0.13672 2.0664-4.7148 5.3672-7.3125 12.266-7.3125 19.406 0 16.227 13.203 29.426 29.426 29.426 16.23 0 29.434-13.199 29.434-29.426s-13.203-29.43-29.43-29.43c-6.1562-0.011718-12.156 1.918-17.148 5.5156-0.31641 0.23437-0.71484 0.33594-1.1016 0.27344-0.39062-0.058594-0.73828-0.27344-0.96875-0.58984-0.22656-0.32031-0.32031-0.71875-0.25391-1.1055 0.070312-0.39062 0.28906-0.73437 0.61328-0.95703 5.4922-3.9531 12.094-6.0742 18.859-6.0547 17.844 0 32.359 14.516 32.359 32.359-0.003906 17.84-14.516 32.348-32.359 32.348z"/>
  <path d="m34.656 70.102c-2.0156 0-3.832-1.2148-4.6016-3.0742-0.77344-1.8633-0.34766-4.0039 1.0781-5.4297 1.4219-1.4258 3.5664-1.8516 5.4258-1.0781 1.8633 0.76953 3.0742 2.5859 3.0742 4.5977 0 2.75-2.2266 4.9766-4.9766 4.9844zm0-7.0312c-0.82812-0.003906-1.5781 0.49609-1.8945 1.2617-0.32031 0.76953-0.14453 1.6523 0.44141 2.2383 0.58594 0.58594 1.4688 0.76172 2.2383 0.44141 0.76562-0.31641 1.2656-1.0664 1.2617-1.8945 0-1.1289-0.91797-2.043-2.0469-2.0469z"/>
  <path d="m69.215 64.727c-2.0156 0-3.832-1.2109-4.6016-3.0742-0.76953-1.8594-0.34375-4.0039 1.082-5.4258 1.4219-1.4258 3.5664-1.8516 5.4258-1.0781 1.8633 0.76953 3.0742 2.5859 3.0742 4.6016-0.003906 2.75-2.2305 4.9766-4.9805 4.9766zm0-7.0312v0.003907c-0.82812 0-1.5781 0.49609-1.8945 1.2656-0.31641 0.76562-0.14062 1.6484 0.44531 2.2344 0.58594 0.58594 1.4688 0.76172 2.2344 0.44531 0.76562-0.32031 1.2656-1.0664 1.2656-1.8945-0.003906-1.1328-0.91797-2.0508-2.0508-2.0508z"/>
  <path d="m50 51.465c-0.66406 0-1.2461-0.44531-1.418-1.0859s0.10938-1.3164 0.68359-1.6484l18.656-10.773v0.003907c0.70312-0.40625 1.5977-0.16406 2.0039 0.53516 0.40625 0.69922 0.16406 1.5977-0.53516 2.0039l-18.656 10.77c-0.22656 0.12891-0.47656 0.19531-0.73438 0.19531z"/>
  <path d="m60.789 36.328c-2.0117 0-3.8281-1.2109-4.6016-3.0742-0.76953-1.8594-0.34375-4.0039 1.0781-5.4297 1.4258-1.4219 3.5703-1.8477 5.4297-1.0781 1.8633 0.77344 3.0742 2.5898 3.0742 4.6055-0.003906 2.7461-2.2305 4.9727-4.9805 4.9766zm0-7.0312c-0.82812 0-1.5742 0.5-1.8945 1.2656-0.31641 0.76562-0.14453 1.6484 0.44531 2.2344 0.58594 0.58594 1.4688 0.76172 2.2344 0.44531 0.76562-0.31641 1.2656-1.0664 1.2656-1.8945 0-1.1328-0.91797-2.0469-2.0508-2.0508z"/>
  <path d="m29.254 32.102c-2.0195 0.003907-3.8438-1.2148-4.6172-3.0781-0.77344-1.8672-0.34375-4.0117 1.082-5.4414 1.4297-1.4297 3.5742-1.8555 5.4414-1.082 1.8672 0.77344 3.082 2.5938 3.082 4.6094-0.003907 2.7578-2.2344 4.9883-4.9883 4.9922zm0-7.0547v0.003906c-0.83594 0-1.5898 0.5-1.9102 1.2734-0.32031 0.76953-0.14062 1.6562 0.44922 2.2461 0.58984 0.58984 1.4766 0.76953 2.2461 0.44922 0.77344-0.32031 1.2734-1.0742 1.2734-1.9102 0-1.1367-0.92188-2.0586-2.0586-2.0586z"/>
  <path d="m5.4688 32.531c-0.80859 0-1.4648-0.65625-1.4648-1.4688v-25.594c0-0.80859 0.65625-1.4648 1.4648-1.4648s1.4648 0.65625 1.4648 1.4648v25.598c0 0.38672-0.15625 0.75781-0.42969 1.0352-0.27344 0.27344-0.64844 0.42969-1.0352 0.42969z"/>
  <path d="m31.066 6.9336h-25.598c-0.80859 0-1.4648-0.65625-1.4648-1.4648s0.65625-1.4648 1.4648-1.4648h25.598c0.80859 0 1.4648 0.65625 1.4648 1.4648s-0.65625 1.4648-1.4648 1.4648z"/>
  <path d="m94.531 32.531c-0.80859 0-1.4648-0.65625-1.4648-1.4688v-25.594c0-0.80859 0.65625-1.4648 1.4648-1.4648s1.4648 0.65625 1.4648 1.4648v25.598c0 0.38672-0.15625 0.75781-0.42969 1.0352-0.27344 0.27344-0.64844 0.42969-1.0352 0.42969z"/>
  <path d="m94.531 6.9336h-25.586c-0.80859 0-1.4648-0.65625-1.4648-1.4648s0.65625-1.4648 1.4648-1.4648h25.586c0.80859 0 1.4648 0.65625 1.4648 1.4648s-0.65625 1.4648-1.4648 1.4648z"/>
  <path d="m5.4688 95.996c-0.80859 0-1.4648-0.65625-1.4648-1.4648v-25.586c0-0.80859 0.65625-1.4648 1.4648-1.4648s1.4648 0.65625 1.4648 1.4648v25.586c0 0.38672-0.15625 0.76172-0.42969 1.0352-0.27344 0.27344-0.64844 0.42969-1.0352 0.42969z"/>
  <path d="m31.066 95.996h-25.598c-0.80859 0-1.4648-0.65625-1.4648-1.4648s0.65625-1.4648 1.4648-1.4648h25.598c0.80859 0 1.4648 0.65625 1.4648 1.4648s-0.65625 1.4648-1.4648 1.4648z"/>
  <path d="m94.531 95.996c-0.80859 0-1.4648-0.65625-1.4648-1.4648v-25.586c0-0.80859 0.65625-1.4648 1.4648-1.4648s1.4648 0.65625 1.4648 1.4648v25.586c0 0.38672-0.15625 0.76172-0.42969 1.0352-0.27344 0.27344-0.64844 0.42969-1.0352 0.42969z"/>
  <path d="m94.531 95.996h-25.586c-0.80859 0-1.4648-0.65625-1.4648-1.4648s0.65625-1.4648 1.4648-1.4648h25.586c0.80859 0 1.4648 0.65625 1.4648 1.4648s-0.65625 1.4648-1.4648 1.4648z"/>
 </g>
</svg>
