<svg xmlns="http://www.w3.org/2000/svg" version="1.1" viewBox="-5.0 -10.0 110.0 135.0">
 <g>
  <path d="m94.531 38.062h-89.062c-0.80859 0-1.4648-0.65625-1.4648-1.4688v-15.391c0-0.80859 0.65625-1.4609 1.4648-1.4609h89.062c0.38672 0 0.76172 0.15234 1.0352 0.42578 0.27344 0.27734 0.42969 0.64844 0.42969 1.0352v15.391c0 0.39062-0.15625 0.76172-0.42969 1.0391-0.27344 0.27344-0.64844 0.42969-1.0352 0.42969zm-87.598-2.9297h86.133v-12.461h-86.133z"/>
  <path d="m91 38.062c-0.625-0.003906-1.1797-0.39844-1.3828-0.99219l-5.2891-15.391c-0.26172-0.76563 0.14844-1.6016 0.91406-1.8672 0.76953-0.26172 1.6055 0.14844 1.8672 0.91406l5.2734 15.395c0.15234 0.44922 0.078126 0.94141-0.19531 1.3242-0.27344 0.38672-0.71875 0.61328-1.1914 0.61719z"/>
  <path d="m86.039 38.062c-0.625 0-1.1797-0.39844-1.3828-0.99219l-5.2852-15.391c-0.26172-0.76563 0.14453-1.5977 0.91016-1.8594 0.76562-0.26562 1.5977 0.14453 1.8594 0.90625l5.2812 15.391 0.003906 0.003906c0.125 0.36719 0.10156 0.76953-0.070312 1.1172-0.17188 0.35156-0.47266 0.61719-0.83984 0.74219-0.15234 0.054687-0.3125 0.082031-0.47656 0.082031z"/>
  <path d="m76.648 38.062c-0.625-0.003906-1.1797-0.39844-1.3828-0.99219l-5.2891-15.391c-0.26172-0.76563 0.14844-1.5977 0.91406-1.8594 0.76172-0.26562 1.5977 0.14453 1.8594 0.90625l5.2852 15.391v0.003906c0.15234 0.44922 0.078125 0.94141-0.19531 1.3242-0.27344 0.38672-0.71875 0.61328-1.1914 0.61719z"/>
  <path d="m71.688 38.062c-0.625 0-1.1797-0.39844-1.3828-0.99219l-5.2852-15.391c-0.26172-0.76563 0.14453-1.5977 0.91016-1.8594 0.76562-0.26562 1.5977 0.14453 1.8594 0.90625l5.2812 15.391 0.003907 0.003906c0.15234 0.44922 0.082031 0.94141-0.19531 1.3242-0.27344 0.38672-0.71484 0.61328-1.1914 0.61719z"/>
  <path d="m62.305 38.062c-0.625-0.003906-1.1797-0.39844-1.3828-0.99219l-5.2969-15.391c-0.125-0.36719-0.097656-0.76953 0.070312-1.1211 0.17188-0.34766 0.47266-0.61328 0.84375-0.73828 0.76172-0.26562 1.5977 0.14453 1.8594 0.90625l5.2852 15.391v0.003906c0.15234 0.44922 0.078125 0.94141-0.19531 1.3242-0.27344 0.38672-0.71875 0.61328-1.1914 0.61719z"/>
  <path d="m57.336 38.062c-0.625-0.003906-1.1797-0.39844-1.3828-0.99219l-5.2852-15.391c-0.26172-0.76563 0.14453-1.5977 0.91016-1.8594 0.76562-0.26562 1.5977 0.14453 1.8594 0.90625l5.2812 15.391 0.003906 0.003906c0.15234 0.44922 0.082032 0.94141-0.19531 1.3242-0.27344 0.38672-0.71484 0.61328-1.1875 0.61719z"/>
  <path d="m47.945 38.062c-0.625 0-1.1797-0.39844-1.3828-0.99219l-5.2891-15.391c-0.26172-0.76563 0.14844-1.5977 0.91406-1.8594 0.76172-0.26562 1.5977 0.14453 1.8594 0.90625l5.2852 15.391v0.003906c0.15234 0.44531 0.078125 0.94141-0.19531 1.3242-0.27344 0.38672-0.71875 0.61328-1.1914 0.61719z"/>
  <path d="m42.984 38.062c-0.625-0.003906-1.1797-0.39844-1.3828-0.99219l-5.2852-15.391c-0.26172-0.76563 0.14453-1.5977 0.91016-1.8594 0.76563-0.26562 1.5977 0.14453 1.8594 0.90625l5.2852 15.391 0.003906 0.003906c0.15234 0.44922 0.078125 0.94141-0.19922 1.3242-0.27344 0.38672-0.71484 0.61328-1.1914 0.61719z"/>
  <path d="m33.594 38.062c-0.625 0-1.1836-0.39844-1.3867-0.99219l-5.2734-15.391c-0.17578-0.375-0.18359-0.80859-0.023438-1.1914 0.16406-0.38281 0.48047-0.67969 0.87109-0.8125 0.39453-0.13672 0.82422-0.097656 1.1875 0.10156 0.36328 0.19922 0.625 0.54688 0.71875 0.94922l5.2852 15.391v0.003906c0.125 0.36719 0.10156 0.76953-0.070312 1.1172-0.17188 0.35156-0.47266 0.61719-0.83984 0.74219-0.15234 0.050781-0.30859 0.078125-0.46875 0.082031z"/>
  <path d="m28.637 38.062c-0.62891-0.003906-1.1836-0.39844-1.3867-0.99219l-5.2852-15.391c-0.26172-0.76563 0.14453-1.5977 0.91016-1.8594 0.76562-0.26562 1.5977 0.14453 1.8594 0.90625l5.2852 15.391v0.003906c0.15625 0.44922 0.082031 0.94141-0.19531 1.3242-0.27344 0.38672-0.71484 0.61328-1.1914 0.61719z"/>
  <path d="m19.242 38.062c-0.625 0-1.1797-0.39844-1.3828-0.99219l-5.2852-15.391c-0.14062-0.37109-0.125-0.78125 0.042969-1.1406 0.17187-0.35937 0.47656-0.63281 0.85156-0.76172s0.78516-0.10156 1.1406 0.078125c0.35156 0.17969 0.61719 0.49609 0.73438 0.87109l5.2852 15.391v0.003906c0.125 0.36719 0.10156 0.76953-0.070312 1.1172-0.17188 0.35156-0.47266 0.61719-0.83984 0.74219-0.15234 0.054687-0.3125 0.082031-0.47656 0.082031z"/>
  <path d="m14.281 38.062c-0.625 0-1.1875-0.39453-1.3906-0.99219l-5.2734-15.391c-0.26172-0.76563 0.14453-1.5977 0.91016-1.8594 0.76562-0.26562 1.5977 0.14453 1.8633 0.90625l5.2852 15.391-0.003906 0.003906c0.15625 0.44922 0.082031 0.94141-0.19531 1.3242-0.27344 0.38672-0.71484 0.61328-1.1875 0.61719z"/>
  <path d="m94.531 65.062h-89.062c-0.80859 0-1.4648-0.65625-1.4648-1.4688v-15.391c0-0.80859 0.65625-1.4609 1.4648-1.4609h89.062c0.38672 0 0.76172 0.15234 1.0352 0.42578 0.27344 0.27734 0.42969 0.64844 0.42969 1.0352v15.391c0 0.39062-0.15625 0.76172-0.42969 1.0391-0.27344 0.27344-0.64844 0.42969-1.0352 0.42969zm-87.598-2.9297h86.133v-12.461h-86.133z"/>
  <path d="m91 65.062c-0.625-0.003906-1.1797-0.39844-1.3828-0.99219l-5.2852-15.391c-0.26562-0.76563 0.14453-1.6016 0.91406-1.8672 0.76562-0.26172 1.6016 0.14844 1.8633 0.91406l5.2734 15.395c0.26172 0.76562-0.14453 1.5977-0.91016 1.8633-0.15234 0.050781-0.3125 0.074219-0.47266 0.078125z"/>
  <path d="m86.039 65.062c-0.625 0-1.1797-0.39844-1.3828-0.99219l-5.2852-15.391c-0.26172-0.76563 0.14453-1.5977 0.91016-1.8594 0.76562-0.26562 1.5977 0.14453 1.8594 0.90625l5.2812 15.391 0.003906 0.003906c0.125 0.36719 0.10156 0.76953-0.070312 1.1211-0.16797 0.34766-0.47266 0.61328-0.83984 0.74219-0.15234 0.050781-0.3125 0.074219-0.47656 0.078125z"/>
  <path d="m76.648 65.062c-0.625-0.003906-1.1797-0.39844-1.3828-0.99219l-5.2852-15.391h-0.003907c-0.26172-0.76563 0.14844-1.5977 0.91406-1.8594 0.76172-0.26562 1.5977 0.14453 1.8594 0.90625l5.2852 15.391v0.003906c0.26172 0.76562-0.14453 1.5977-0.91016 1.8633-0.15234 0.050781-0.31641 0.074219-0.47656 0.078125z"/>
  <path d="m71.688 65.062c-0.625 0-1.1797-0.39844-1.3828-0.99219l-5.2852-15.391c-0.26172-0.76563 0.14453-1.5977 0.91016-1.8594 0.76562-0.26562 1.5977 0.14453 1.8594 0.90625l5.2812 15.391 0.003907 0.003906c0.26172 0.76562-0.14453 1.5977-0.91016 1.8633-0.15234 0.050781-0.3125 0.074219-0.47656 0.078125z"/>
  <path d="m62.305 65.062c-0.625-0.003906-1.1797-0.39844-1.3828-0.99219l-5.2852-15.391c-0.20312-0.74219 0.20703-1.5156 0.9375-1.7656 0.72656-0.25 1.5234 0.10547 1.8242 0.8125l5.2852 15.391v0.003906c0.26172 0.76562-0.14453 1.5977-0.91016 1.8633-0.15234 0.046875-0.30859 0.074219-0.46875 0.078125z"/>
  <path d="m57.336 65.062c-0.625-0.003906-1.1797-0.39844-1.3828-0.99219l-5.2852-15.391c-0.26172-0.76563 0.14453-1.5977 0.91016-1.8594 0.76562-0.26562 1.5977 0.14453 1.8594 0.90625l5.2812 15.391 0.003906 0.003906c0.26172 0.76562-0.14453 1.5977-0.90625 1.8633-0.15625 0.050781-0.31641 0.074219-0.48047 0.078125z"/>
  <path d="m47.945 65.062c-0.625 0-1.1797-0.39844-1.3828-0.99219l-5.2852-15.391h-0.003906c-0.26172-0.76563 0.14844-1.5977 0.91406-1.8594 0.76172-0.26562 1.5977 0.14453 1.8594 0.90625l5.2852 15.391v0.003906c0.26172 0.76562-0.14453 1.5977-0.91016 1.8633-0.15234 0.050781-0.3125 0.074219-0.47656 0.078125z"/>
  <path d="m42.984 65.062c-0.625-0.003906-1.1797-0.39844-1.3828-0.99219l-5.2852-15.391c-0.26172-0.76563 0.14453-1.5977 0.91016-1.8594 0.76563-0.26562 1.5977 0.14453 1.8594 0.90625l5.2852 15.391 0.003906 0.003906c0.25781 0.76562-0.14844 1.5977-0.91406 1.8633-0.15234 0.050781-0.3125 0.074219-0.47656 0.078125z"/>
  <path d="m33.594 65.062c-0.625 0-1.1836-0.39844-1.3867-0.99219l-5.2734-15.391c-0.17578-0.375-0.18359-0.80859-0.023438-1.1914 0.16406-0.38281 0.48047-0.67969 0.87109-0.8125 0.39453-0.13672 0.82422-0.097656 1.1875 0.10156 0.36328 0.19922 0.625 0.54688 0.71875 0.94922l5.2852 15.391v0.003906c0.125 0.36719 0.10156 0.76953-0.070312 1.1211-0.16797 0.34766-0.47266 0.61328-0.83984 0.74219-0.15234 0.050781-0.30859 0.074219-0.46875 0.078125z"/>
  <path d="m28.637 65.062c-0.62891-0.003906-1.1836-0.39844-1.3867-0.99219l-5.2852-15.391c-0.26172-0.76563 0.14453-1.5977 0.91016-1.8594 0.76562-0.26562 1.5977 0.14453 1.8594 0.90625l5.2852 15.391 0.003907 0.003906c0.25781 0.76562-0.14844 1.5977-0.91406 1.8633h0.003906c-0.15625 0.050781-0.31641 0.074219-0.47656 0.078125z"/>
  <path d="m19.242 65.062c-0.625 0-1.1797-0.39844-1.3828-0.99219l-5.2852-15.391c-0.14062-0.37109-0.125-0.78125 0.042969-1.1406 0.17187-0.35937 0.47656-0.63281 0.85156-0.76172s0.78516-0.10156 1.1406 0.078125c0.35156 0.17969 0.61719 0.49609 0.73438 0.87109l5.2852 15.391v0.003906c0.125 0.36719 0.10156 0.76953-0.070312 1.1211-0.16797 0.34766-0.47266 0.61328-0.83984 0.74219-0.15234 0.050781-0.3125 0.074219-0.47656 0.078125z"/>
  <path d="m14.281 65.062c-0.625 0-1.1875-0.39453-1.3906-0.99219l-5.2734-15.391c-0.26172-0.76563 0.14453-1.5977 0.91016-1.8594 0.76562-0.26562 1.5977 0.14453 1.8633 0.90625l5.2852 15.391-0.003906 0.003906c0.26172 0.76562-0.14453 1.5977-0.90625 1.8633-0.15625 0.050781-0.32031 0.078125-0.48438 0.078125z"/>
  <path d="m21.508 89.43h-8.0195c-0.80859 0-1.4648-0.65234-1.4648-1.4609v-24.375c0-0.80859 0.65625-1.4609 1.4648-1.4609 0.80859 0 1.4648 0.65234 1.4648 1.4609v22.906h5.0898v-22.906c0-0.80859 0.65625-1.4609 1.4648-1.4609 0.80859 0 1.4648 0.65234 1.4648 1.4609v24.375c0 0.38672-0.15625 0.75781-0.42969 1.0352-0.27344 0.27344-0.64844 0.42578-1.0352 0.42578zm0-39.762c-0.80859 0-1.4648-0.65234-1.4648-1.4648v-11.609c0-0.80859 0.65625-1.4609 1.4648-1.4609 0.80859 0 1.4648 0.65234 1.4648 1.4609v11.609c0 0.39062-0.15625 0.76172-0.42969 1.0391-0.27344 0.27344-0.64844 0.42969-1.0352 0.42969zm-8.0195 0c-0.80859 0-1.4648-0.65234-1.4648-1.4648v-11.609c0-0.80859 0.65625-1.4609 1.4648-1.4609 0.80859 0 1.4648 0.65234 1.4648 1.4609v11.609c0 0.39062-0.15625 0.76172-0.42969 1.0391-0.27344 0.27344-0.64844 0.42969-1.0352 0.42969zm8.0195-27c-0.80859 0-1.4648-0.65234-1.4648-1.4648v-7.7031h-5.0898v7.707-0.003906c0 0.8125-0.65625 1.4688-1.4648 1.4688-0.80859 0-1.4648-0.65625-1.4648-1.4688v-9.1797c0-0.80859 0.65625-1.4648 1.4648-1.4648h8.0195c0.38672 0 0.76172 0.15625 1.0352 0.42969 0.27344 0.27734 0.42969 0.64844 0.42969 1.0352v9.1797c0 0.39062-0.15625 0.76172-0.42969 1.0391-0.27344 0.27344-0.64844 0.42969-1.0352 0.42969z"/>
  <path d="m86.512 89.43h-8.0195c-0.80859 0-1.4648-0.65234-1.4648-1.4609v-24.375c0-0.80859 0.65625-1.4609 1.4648-1.4609 0.80859 0 1.4648 0.65234 1.4648 1.4609v22.906h5.0898v-22.906c0-0.80859 0.65625-1.4609 1.4648-1.4609 0.80859 0 1.4648 0.65234 1.4648 1.4609v24.375c0 0.38672-0.15625 0.75781-0.42969 1.0352-0.27344 0.27344-0.64844 0.42578-1.0352 0.42578zm0-39.762c-0.80859 0-1.4648-0.65234-1.4648-1.4648v-11.609c0-0.80859 0.65625-1.4609 1.4648-1.4609 0.80859 0 1.4648 0.65234 1.4648 1.4609v11.609c0 0.39062-0.15625 0.76172-0.42969 1.0391-0.27344 0.27344-0.64844 0.42969-1.0352 0.42969zm-8.0195 0c-0.80859 0-1.4648-0.65234-1.4648-1.4648v-11.609c0-0.80859 0.65625-1.4609 1.4648-1.4609 0.80859 0 1.4648 0.65234 1.4648 1.4609v11.609c0 0.39062-0.15625 0.76172-0.42969 1.0391-0.27344 0.27344-0.64844 0.42969-1.0352 0.42969zm8.0195-27c-0.80859 0-1.4648-0.65234-1.4648-1.4648v-7.7031h-5.0898v7.707-0.003906c0 0.8125-0.65625 1.4688-1.4648 1.4688-0.80859 0-1.4648-0.65625-1.4648-1.4688v-9.1797c0-0.80859 0.65625-1.4648 1.4648-1.4648h8.0195c0.38672 0 0.76172 0.15625 1.0352 0.42969 0.27344 0.27734 0.42969 0.64844 0.42969 1.0352v9.1797c0 0.39062-0.15625 0.76172-0.42969 1.0391-0.27344 0.27344-0.64844 0.42969-1.0352 0.42969z"/>
 </g>
</svg>
