<svg xmlns="http://www.w3.org/2000/svg" version="1.1" viewBox="-5.0 -10.0 110.0 135.0">
 <g>
  <path d="m31.332 91.633c-0.035156 0.003907-0.066406 0.003907-0.10156 0-0.39062-0.023437-0.75-0.20312-1.0078-0.49609-0.25781-0.29297-0.38672-0.67578-0.35938-1.0664l3.9062-57.145v0.003907c0.054688-0.8125 0.75391-1.4219 1.5625-1.3672 0.80859 0.050781 1.4219 0.75 1.3672 1.5625l-3.9062 57.145v-0.003906c-0.050781 0.77344-0.69141 1.3711-1.4609 1.3672zm33.801-0.22656c-0.76953 0-1.4062-0.59766-1.4609-1.3672l-3.8867-56.914c-0.027344-0.38672 0.10547-0.76953 0.35938-1.0625 0.25781-0.29688 0.62109-0.47266 1.0078-0.5 0.80859-0.054688 1.5078 0.55859 1.5625 1.3672l3.8867 56.902c0.027344 0.38672-0.10156 0.77344-0.35937 1.0664-0.25781 0.29297-0.62109 0.46875-1.0078 0.49609z"/>
  <path d="m38.719 26.598c-0.8125 0-1.4688-0.65625-1.4688-1.4648v-12.289c0-0.80859 0.65625-1.4648 1.4688-1.4648 0.80859 0 1.4609 0.65625 1.4609 1.4648v12.289c0 0.38672-0.15234 0.76172-0.42578 1.0352-0.27734 0.27344-0.64844 0.42969-1.0352 0.42969z"/>
  <path d="m57.766 26.598c-0.80859 0-1.4648-0.65625-1.4648-1.4648v-12.289c0-0.80859 0.65625-1.4648 1.4648-1.4648s1.4648 0.65625 1.4648 1.4648v12.289c0 0.38672-0.15625 0.76172-0.42969 1.0352-0.27344 0.27344-0.64844 0.42969-1.0352 0.42969z"/>
  <path d="m37.93 85.188c-2.1875 0.011719-4.3672-0.26172-6.4844-0.8125-0.77734-0.21094-1.2422-1.0078-1.0352-1.7891 0.20703-0.78125 1.0039-1.2461 1.7852-1.043 10.418 2.7578 23.293-2.9297 30.848-9.3984 0.61328-0.52734 1.5391-0.45312 2.0664 0.16016 0.52344 0.61719 0.45312 1.5391-0.16406 2.0664-4.6094 3.8984-9.9141 6.8945-15.633 8.832-3.9453 1.3203-7.793 1.9844-11.383 1.9844zm-3.8828-33.234c-0.62891 0-1.1836-0.39844-1.3867-0.98828-0.20312-0.59375-0.007812-1.25 0.48438-1.6328 6.8906-5.3594 18.094-10.613 28.863-9.2734v0.003906c0.80469 0.097656 1.3711 0.83203 1.2734 1.6328-0.10156 0.80469-0.83203 1.375-1.6367 1.2734-9.8828-1.2305-20.273 3.6758-26.703 8.6797h0.003906c-0.25781 0.19531-0.57422 0.30469-0.89844 0.30469z"/>
  <path d="m41.164 77.484c-4.4531 0-7.8477-1.7578-9.8281-5.1094l0.003906 0.003906c-0.21484-0.33594-0.28125-0.74219-0.19141-1.1289 0.09375-0.38672 0.33984-0.71875 0.67969-0.91797 0.33984-0.20312 0.75-0.25781 1.1328-0.15234 0.38281 0.10156 0.70703 0.35937 0.89844 0.70703 1.4844 2.5078 4.0469 3.7383 7.6172 3.6641 7.2734-0.15234 17.258-6.0781 20.543-12.199 0.18359-0.34375 0.49609-0.59766 0.86719-0.71094 0.37109-0.10938 0.77344-0.070313 1.1133 0.11328 0.71484 0.38281 0.98438 1.2695 0.60156 1.9844-1.7812 3.3203-5.3125 6.7344-9.6875 9.375-4.5156 2.7344-9.2656 4.2812-13.375 4.3672zm-7.8984-14.203c-0.51562 0-0.99609-0.27344-1.2578-0.71875-0.26172-0.44922-0.27344-1-0.023437-1.4531 3.3906-6.1641 12.086-11.996 19.789-13.281 4.7969-0.79688 8.8594 0.17188 11.738 2.7969 0.28516 0.26172 0.46094 0.625 0.47656 1.0156 0.019531 0.38672-0.11719 0.76953-0.37891 1.0547-0.26172 0.28906-0.62891 0.46094-1.0156 0.48047-0.39062 0.015625-0.76953-0.12109-1.0547-0.38672-2.7734-2.5234-6.5781-2.5234-9.2852-2.0703-6.8047 1.125-14.742 6.418-17.703 11.797v-0.003906c-0.25391 0.47266-0.74609 0.76953-1.2852 0.76953z"/>
  <path d="m53.262 68.969h-10.043c-0.80859 0-1.4609-0.65625-1.4609-1.4688v-6.7266c-0.03125-1.7383 0.63672-3.418 1.8555-4.6602 1.2227-1.2383 2.8867-1.9375 4.6289-1.9375 1.7383 0 3.4062 0.69922 4.625 1.9375 1.2188 1.2422 1.8906 2.9219 1.8594 4.6602v6.7305-0.003906c0 0.39062-0.15625 0.76172-0.42969 1.0391-0.27344 0.27344-0.64844 0.42969-1.0352 0.42969zm-8.5781-2.9297h7.1133v-5.2656c0.023437-0.95703-0.34375-1.8828-1.0117-2.5703-0.66797-0.68359-1.5859-1.0703-2.543-1.0703-0.95703 0-1.875 0.38672-2.5469 1.0703-0.66797 0.6875-1.0312 1.6133-1.0078 2.5703z"/>
  <path d="m57.766 14.309h-19.047c-0.52734 0-1.0078-0.28125-1.2695-0.73438s-0.26172-1.0117 0-1.4648l4.2734-7.375c0.26172-0.45312 0.74609-0.73047 1.2695-0.73047h10.504-0.003906c0.52344 0 1.0078 0.27734 1.2695 0.73047l4.2695 7.375c0.26562 0.45312 0.26562 1.0117 0.003906 1.4648-0.26172 0.45312-0.74609 0.73438-1.2695 0.73438zm-16.508-2.9297h13.969l-2.5781-4.4453h-8.8125z"/>
  <path d="m62.273 34.492h-28.062c-2.1758-0.007813-3.9336-1.7695-3.9375-3.9453v-2.4219c0.003906-2.1758 1.7656-3.9414 3.9453-3.9453h28.055c2.1719 0.007812 3.9336 1.7695 3.9375 3.9453v2.4219c-0.003907 2.1758-1.7656 3.9375-3.9375 3.9453zm-28.062-7.375c-0.55469 0.003906-1.0039 0.45312-1.0078 1.0078v2.4219c0 0.55859 0.45312 1.0117 1.0156 1.0156h28.055c0.55469-0.003906 1.0078-0.45703 1.0078-1.0156v-2.4219c0-0.55859-0.45312-1.0117-1.0156-1.0156z"/>
  <path d="m52.043 27.117h-7.6016c-0.80859 0-1.4648-0.65625-1.4648-1.4648v-7.2695c0-0.8125 0.65625-1.4688 1.4648-1.4688h7.6016c0.38672 0 0.76172 0.15625 1.0352 0.42969 0.27344 0.27734 0.42969 0.64844 0.42969 1.0391v7.2695-0.003906c0 0.39062-0.15625 0.76172-0.42969 1.0391-0.27344 0.27344-0.64844 0.42969-1.0352 0.42969zm-6.1367-2.9297h4.6797v-4.3438h-4.6875z"/>
  <path d="m88.531 95.996c-0.32031 0-0.62891-0.10547-0.88281-0.29688l-5.3359-4.0312c-1.3828-1.0586-3.3086-1.0586-4.6875 0l-2.1133 1.5938-0.003907 0.003906c-2.4219 1.8516-5.7891 1.8516-8.2109 0l-2.1133-1.5938-0.003906-0.003906c-1.3789-1.0586-3.3047-1.0586-4.6875 0l-2.0938 1.5977c-2.4219 1.8555-5.793 1.8555-8.2148 0l-2.1133-1.5938v-0.003906c-1.3828-1.0586-3.3047-1.0586-4.6875 0l-2.1133 1.5938v0.003906c-2.4219 1.8555-5.793 1.8555-8.2148 0l-2.1133-1.5938v-0.003906c-1.3828-1.0586-3.3047-1.0586-4.6875 0l-2.1133 1.5938v0.003906c-2.4219 1.8555-5.793 1.8555-8.2148 0l-5.3398-4.0312c-0.64844-0.48828-0.77734-1.4102-0.28906-2.0586 0.48828-0.64453 1.4062-0.77344 2.0547-0.28516l5.3359 4.0312c1.3828 1.0586 3.3086 1.0586 4.6875 0l2.1133-1.5938v-0.003906c2.4258-1.8555 5.793-1.8555 8.2148 0l2.1133 1.5938 0.003906 0.003906c1.3789 1.0586 3.3047 1.0586 4.6875 0l2.1133-1.5938-0.003906-0.003906c2.4258-1.8555 5.793-1.8555 8.2148 0l2.1133 1.5938v0.003906c1.3828 1.0586 3.3086 1.0586 4.6875 0l2.1133-1.5938v-0.003906c2.4258-1.8555 5.793-1.8555 8.2148 0l2.1133 1.5938v0.003906c1.3828 1.0586 3.3086 1.0586 4.6875 0l2.1133-1.5938v-0.003906c2.4258-1.8555 5.793-1.8555 8.2148 0l5.3242 4.0352c0.50391 0.37891 0.70703 1.0391 0.50781 1.6328-0.20312 0.59766-0.76172 1-1.3906 1z"/>
 </g>
</svg>
